<?xml version="1.0" encoding="UTF-8" standalone="no"?>
<svg width="338px" height="192px" viewBox="0 0 338 192" version="1.1" xmlns="http://www.w3.org/2000/svg" xmlns:xlink="http://www.w3.org/1999/xlink" xmlns:sketch="http://www.bohemiancoding.com/sketch/ns">
    <!-- Generator: Sketch 3.2.2 (9983) - http://www.bohemiancoding.com/sketch -->
    <title>Shape</title>
    <desc>Created with Sketch.</desc>
    <defs></defs>
    <g id="Page-1" stroke="none" stroke-width="1" fill="none" fill-rule="evenodd" sketch:type="MSPage">
        <g id="code" sketch:type="MSLayerGroup" fill="#3B1B27">
            <g id="Shape-+-Path" sketch:type="MSShapeGroup">
                <path d="M300.444444,8.65882353 C300.444444,3.76470588 296.313333,0 291.431111,0 L46.1933333,0 C41.3111111,0 37.5555556,3.76470588 37.5555556,8.65882353 L37.5555556,175.435294 L300.444444,175.435294 L300.444444,8.65882353 L300.444444,8.65882353 Z M167.497778,3.01176471 C170.126667,3.01176471 172.004444,5.27058824 172.004444,7.90588235 C172.004444,10.5411765 169.751111,12.8 167.497778,12.8 C164.868889,12.8 162.991111,10.5411765 162.991111,7.90588235 C162.615556,5.27058824 164.868889,3.01176471 167.497778,3.01176471 L167.497778,3.01176471 Z M284.671111,160 L53.3288889,160 L53.3288889,15.8117647 L284.671111,15.8117647 L284.671111,160 L284.671111,160 Z M195.288889,178.823529 C194.913333,181.082353 193.411111,181.835294 191.157778,181.835294 L146.842222,181.835294 C144.588889,181.835294 143.086667,181.082353 142.711111,178.823529 L0,178.823529 L0,184.847059 C0,188.235294 23.66,191.247059 52.5777778,191.247059 L285.422222,191.247059 C314.34,191.247059 338,188.235294 338,184.847059 L338,178.823529 L195.288889,178.823529 L195.288889,178.823529 Z" id="Shape"></path>
            </g>
        </g>
    </g>
</svg>