<svg xmlns="http://www.w3.org/2000/svg" xmlns:xlink="http://www.w3.org/1999/xlink" version="1.1" id="Layer_1" x="0px" y="0px" viewBox="5.0 -10.0 100.0 135.0" enable-background="new 0 0 100 100" xml:space="preserve" height="100px" width="100px">
<path d="M50,97.137c-1.402,0-2.786-0.371-4-1.072L12.106,76.497c-2.467-1.424-4-4.079-4-6.928V30.432c0-2.849,1.533-5.504,4-6.928  L46,3.935c2.429-1.402,5.571-1.402,8,0l33.894,19.568c2.467,1.424,4,4.079,4,6.928v39.137c0,2.849-1.533,5.504-4,6.928L54,96.065  C52.786,96.766,51.402,97.137,50,97.137z M50,6.863c-0.701,0-1.393,0.185-2,0.536L14.106,26.967c-1.234,0.712-2,2.04-2,3.464v39.137  c0,1.425,0.766,2.752,2,3.464L48,92.601c1.215,0.701,2.785,0.701,4,0l33.894-19.568c1.234-0.712,2-2.04,2-3.464V30.432  c0-1.425-0.766-2.752-2-3.464L52,7.399C51.393,7.048,50.701,6.863,50,6.863z"/>
<polygon points="66,57 50,73 34,57 37,54 48,65 48,27 52,27 52,65 63,54 "/>
</svg>